<svg xmlns:dc="http://purl.org/dc/elements/1.1/" xmlns:cc="http://creativecommons.org/ns#" xmlns:rdf="http://www.w3.org/1999/02/22-rdf-syntax-ns#" xmlns:svg="http://www.w3.org/2000/svg" xmlns="http://www.w3.org/2000/svg" xmlns:sodipodi="http://sodipodi.sourceforge.net/DTD/sodipodi-0.dtd" xmlns:inkscape="http://www.inkscape.org/namespaces/inkscape" version="1.1" x="0px" y="0px" viewBox="0 0 100 100">
	<g transform="translate(0,-952.36218)">
		<path style="text-indent:0;text-transform:none;direction:ltr;block-progression:tb;baseline-shift:baseline;color:#000000;enable-background:accumulate;" d="M 24.69528,969.52855 7.0078001,991.3098 c -0.467929,0.58461 0.032,1.62527 0.781193,1.625 l 8.3437789,0 c 0.286618,26.0884 14.287925,40.4704 28.906228,42.4062 4.034799,0.5343 8.123102,0.1429 11.937578,-1.2187 1.252701,0.3557 2.50441,0.5908 3.781205,0.75 14.390396,1.7938 29.435596,-8.9933 32.406196,-31.2188 0.084,-0.9496 -0.37998,-1.2438 -1.25,-1.2812 l -16.21868,0 c -1.17152,0.067 -1.19632,0.3301 -1.25001,1.0937 -0.76021,10.9786 -4.668514,18.8722 -10.031309,23.8125 -2.278985,2.0995 -4.836792,3.6715 -7.531193,4.7188 C 45.325689,1028.3929 35.1525,1015.6441 34.914,992.9348 l 8.249988,0 c 0.748807,3.5e-4 1.249193,-1.04037 0.781299,-1.625 L 26.257772,969.52855 c -0.46428,-0.51315 -1.029189,-0.48783 -1.562492,0 z m 0.781299,2.21875 15.593704,19.1875 -7.15631,0 c -0.534083,-2e-5 -1.016469,0.49739 -0.999993,1.03125 0,0.0312 0,0.0625 0,0.0937 -7.08e-4,0.0208 -7.08e-4,0.0417 0,0.0625 0,22.19215 9.359114,35.88295 20.843823,40.84375 -2.755134,0.6412 -5.590311,0.7832 -8.4375,0.4062 -13.65013,-1.8075 -27.187511,-15.3473 -27.187511,-41.24995 0,-0.0416 0,-0.0834 0,-0.125 0.03398,-0.54398 -0.454996,-1.06332 -0.999992,-1.0625 l -7.2499959,0 z m 50.87501,32.625 14.6874,0 c -3.16201,20.7437 -16.98771,30.1571 -30.03119,28.5312 -0.319926,-0.04 -0.618307,-0.103 -0.937524,-0.1562 2.012528,-1.042 3.932716,-2.3835 5.687504,-4 5.657811,-5.2122 9.67822,-13.3755 10.59381,-24.375 z" fill="white" fill-opacity="1" fill-rule="evenodd" stroke="none" marker="none" visibility="visible" display="inline" overflow="visible" />
	</g>
</svg>
